<svg xmlns="http://www.w3.org/2000/svg" viewBox="0 0 32 32" fill="none">
  <rect width="32" height="32" rx="6" fill="#060606"/>
  <path d="M4 7h8c3 0 5 1.5 5 4.2 0 1.8-1 3-2.5 3.5 1.8.6 3 2 3 4.2 0 3-2 4.5-5.5 4.5H4V7zm4.2 6.5h3.8c1.5 0 2.4-.8 2.4-2s-.9-2-2.4-2h-3.8v4zm0 7h4.2c1.8 0 2.7-.9 2.7-2.2s-.9-2.1-2.7-2.1H8.2v4.3z" fill="white"/>
  <path d="M20.5 7h4v12c0 2.4-1 3.6-3 4.2-1.5.5-3.3.2-4.5-.7l1.5-3c.6.6 1.5.9 2.1.6.9-.3 1.2-.9 1.2-2.1V7z" fill="white"/>
  <rect x="21.5" y="3" width="4" height="4" rx="1" fill="#60A5FA"/>
</svg>
